<?xml version="1.0" encoding="UTF-8" standalone="no"?>
<svg
   xml:space="preserve"
   width="1280"
   height="640"
   version="1.1"
   id="svg100"
   sodipodi:docname="assimpjs_logo.svg"
   inkscape:version="1.1 (c68e22c387, 2021-05-23)"
   inkscape:export-filename="C:\Users\kovacsv\GitRepos\assimpjs\demo\images\assimpjs_logo.png"
   inkscape:export-xdpi="409.60001"
   inkscape:export-ydpi="409.60001"
   xmlns:inkscape="http://www.inkscape.org/namespaces/inkscape"
   xmlns:sodipodi="http://sodipodi.sourceforge.net/DTD/sodipodi-0.dtd"
   xmlns:xlink="http://www.w3.org/1999/xlink"
   xmlns="http://www.w3.org/2000/svg"
   xmlns:svg="http://www.w3.org/2000/svg"><sodipodi:namedview
     id="namedview36"
     pagecolor="#ffffff"
     bordercolor="#666666"
     borderopacity="1.0"
     inkscape:pageshadow="2"
     inkscape:pageopacity="0.0"
     inkscape:pagecheckerboard="0"
     showgrid="false"
     inkscape:zoom="0.61871843"
     inkscape:cx="650.53824"
     inkscape:cy="189.90868"
     inkscape:window-width="1920"
     inkscape:window-height="1017"
     inkscape:window-x="1912"
     inkscape:window-y="-8"
     inkscape:window-maximized="1"
     inkscape:current-layer="svg100" /><defs
     id="defs3"><path
       id="a"
       d="M-5-1h62v62H-5z" /><clipPath
       id="d-5"><use
         xlink:href="#c-8"
         overflow="visible"
         style="overflow:visible"
         width="100%"
         height="100%"
         id="use11-8" /></clipPath><path
       id="a-0"
       d="M-5-1h62v62H-5z" /><path
       id="c-8"
       d="M-5-1h62v62H-5z" /><clipPath
       id="d-5-6"><use
         xlink:href="#c"
         overflow="visible"
         style="overflow:visible"
         width="100%"
         height="100%"
         id="use11-8-0" /></clipPath><path
       id="a-7"
       d="M-5-1h62v62H-5z" /><path
       id="c"
       d="M-5-1h62v62H-5z" /><clipPath
       id="d-5-2"><use
         xlink:href="#c-88"
         overflow="visible"
         style="overflow:visible"
         width="100%"
         height="100%"
         id="use11-8-7" /></clipPath><path
       id="a-5"
       d="M -5,-1 H 57 V 61 H -5 Z" /><path
       id="c-88"
       d="M -5,-1 H 57 V 61 H -5 Z" /></defs><clipPath
     id="b"><use
       xlink:href="#a"
       overflow="visible"
       style="overflow:visible"
       width="100%"
       height="100%"
       id="use5" /></clipPath><path
     style="opacity:1;fill:#fff;fill-opacity:1;fill-rule:nonzero;stroke:none;stroke-width:.67433947;stroke-linecap:round;stroke-linejoin:round;stroke-miterlimit:4;stroke-dasharray:none;stroke-dashoffset:0;stroke-opacity:1;paint-order:markers stroke fill"
     d="M-4.898-26.749h1280v640h-1280z"
     id="path8"
     transform="translate(4.898 26.75)" /><rect
     style="font-size:116.335px;line-height:1.25;font-family:Milliard;-inkscape-font-specification:Milliard;fill:#f7e018;fill-opacity:1;stroke-width:7.99998;stroke-miterlimit:10"
     id="rect3070"
     width="200"
     height="200"
     x="781.56195"
     y="185.04977"
     ry="0.15081987" /><g
     id="g906"
     transform="translate(47.92343,-27.471475)"><path
       d="m 374.18139,319.66841 c -4.30439,0 -11.40083,0.58168 -20.12595,3.14105 v 11.9825 c 8.02711,-4.30439 13.61119,-5.23507 17.56658,-5.23507 10.00481,0 15.12355,4.88607 15.12355,13.49486 v 6.9801 c -4.88607,-5.46775 -10.81915,-7.56178 -17.21758,-7.56178 -12.68051,0 -21.52197,8.37612 -21.52197,19.42795 0,11.05182 8.84146,19.42794 21.52197,19.42794 6.39843,0 12.33151,-2.44303 17.21758,-8.37612 v 7.21277 h 12.33151 v -37.5762 c 0,-14.65821 -9.19046,-22.918 -24.89569,-22.918 z m -1.27968,53.04876 c -7.32911,0 -12.68052,-4.53706 -12.68052,-10.81915 0,-6.16576 5.23508,-10.93549 12.68052,-10.93549 4.18806,0 8.95779,1.51235 13.84386,7.56177 v 6.74743 c -4.76973,5.93309 -9.77214,7.44544 -13.84386,7.44544 z"
       id="path6788"
       style="font-size:116.335px;line-height:1.25;font-family:Milliard;-inkscape-font-specification:Milliard;stroke-width:0.999997" /><path
       d="m 435.02454,381.32596 c 14.07654,0 22.10365,-7.67811 22.10365,-18.26459 0,-22.21999 -32.45746,-14.19287 -32.45746,-26.87339 0,-4.42073 3.72272,-7.21277 10.58648,-7.21277 5.46775,0 12.91319,1.86136 19.31161,5.70042 l 0.23267,-11.98251 c -6.16575,-2.21036 -14.42554,-3.02471 -19.31161,-3.02471 -14.19287,0 -23.38333,6.86377 -23.38333,17.68292 0,21.05664 32.45746,13.26219 32.45746,27.10606 0,4.42073 -3.72272,7.3291 -10.81915,7.3291 -7.21277,0 -13.84387,-3.25738 -21.87098,-8.14345 v 12.44785 c 9.3068,4.07172 17.68292,5.23507 23.15066,5.23507 z"
       id="path6790"
       style="font-size:116.335px;line-height:1.25;font-family:Milliard;-inkscape-font-specification:Milliard;stroke-width:0.999997" /><path
       d="m 489.81819,381.32596 c 14.07653,0 22.10365,-7.67811 22.10365,-18.26459 0,-22.21999 -32.45747,-14.19287 -32.45747,-26.87339 0,-4.42073 3.72272,-7.21277 10.58649,-7.21277 5.46774,0 12.91318,1.86136 19.31161,5.70042 l 0.23267,-11.98251 c -6.16576,-2.21036 -14.42554,-3.02471 -19.31161,-3.02471 -14.19287,0 -23.38334,6.86377 -23.38334,17.68292 0,21.05664 32.45747,13.26219 32.45747,27.10606 0,4.42073 -3.72272,7.3291 -10.81916,7.3291 -7.21277,0 -13.84386,-3.25738 -21.87098,-8.14345 v 12.44785 c 9.3068,4.07172 17.68292,5.23507 23.15067,5.23507 z"
       id="path6792"
       style="font-size:116.335px;line-height:1.25;font-family:Milliard;-inkscape-font-specification:Milliard;stroke-width:0.999997" /><path
       d="m 532.51299,309.77994 c 4.53706,0 8.02711,-3.49005 8.02711,-8.02712 0,-4.53706 -3.49005,-7.91078 -8.02711,-7.91078 -4.53707,0 -8.14345,3.37372 -8.14345,7.91078 0,4.53707 3.60638,8.02712 8.14345,8.02712 z m -6.16576,70.38267 h 12.21518 v -59.33085 h -12.21518 z"
       id="path6794"
       style="font-size:116.335px;line-height:1.25;font-family:Milliard;-inkscape-font-specification:Milliard;stroke-width:0.999997" /><path
       d="m 628.14027,319.66841 c -9.77214,0 -16.05423,5.46775 -20.9403,12.68052 -2.6757,-8.02712 -9.07413,-12.68052 -18.14826,-12.68052 -9.42313,0 -15.23988,5.11874 -19.77695,11.6335 v -10.47015 h -12.21517 v 59.33085 h 12.21517 v -38.50688 c 5.00241,-7.21277 9.3068,-10.81916 15.35622,-10.81916 6.9801,0 11.51717,4.76974 11.51717,12.68052 v 36.64552 h 12.21517 v -39.20489 c 5.11874,-6.04942 9.3068,-10.12115 15.47256,-10.12115 6.86376,0 11.40083,4.76974 11.40083,12.68052 v 36.64552 h 12.21517 v -39.32123 c 0,-13.14585 -7.44544,-21.17297 -19.31161,-21.17297 z"
       id="path6796"
       style="font-size:116.335px;line-height:1.25;font-family:Milliard;-inkscape-font-specification:Milliard;stroke-width:0.999997" /><path
       d="m 696.31252,319.66841 c -7.67811,0 -14.77455,3.14105 -19.89329,9.65581 v -8.49246 h -12.21517 v 79.1078 h 12.21517 v -28.2694 c 5.23508,6.51476 12.33151,9.6558 19.89329,9.6558 16.51957,0 27.57139,-13.14585 27.57139,-30.82877 0,-17.68292 -11.16816,-30.82878 -27.57139,-30.82878 z m -3.49005,51.1874 c -6.39843,0 -12.21518,-3.49005 -16.40324,-9.77214 v -21.05663 c 4.42073,-6.39843 10.58649,-9.88848 16.75224,-9.88848 10.93549,0 18.49727,8.72513 18.49727,20.24229 0,11.74984 -7.67811,20.47496 -18.84627,20.47496 z"
       id="path6798"
       style="font-size:116.335px;line-height:1.25;font-family:Milliard;-inkscape-font-specification:Milliard;stroke-width:0.999997" /><path
       d="m 770.30152,309.77994 c 4.53707,0 8.02712,-3.49005 8.02712,-8.02712 0,-4.53706 -3.49005,-7.91078 -8.02712,-7.91078 -4.53706,0 -8.14345,3.37372 -8.14345,7.91078 0,4.53707 3.60639,8.02712 8.14345,8.02712 z m 6.04942,11.05182 h -12.21517 v 59.56352 c 0,6.6311 -4.76974,11.16816 -11.6335,11.16816 -1.9777,0 -3.72272,-0.23267 -6.86377,-1.16335 v 10.12115 c 3.83906,0.46534 5.93309,0.58167 8.14345,0.58167 13.02952,0 22.56899,-9.19046 22.56899,-21.2893 z"
       id="path6800"
       style="font-size:116.335px;line-height:1.25;font-family:Milliard;-inkscape-font-specification:Milliard;stroke-width:0.999997" /><path
       d="m 814.04347,381.32596 c 14.07653,0 22.10365,-7.67811 22.10365,-18.26459 0,-22.21999 -32.45747,-14.19287 -32.45747,-26.87339 0,-4.42073 3.72272,-7.21277 10.58649,-7.21277 5.46774,0 12.91318,1.86136 19.31161,5.70042 l 0.23267,-11.98251 c -6.16576,-2.21036 -14.42554,-3.02471 -19.31161,-3.02471 -14.19287,0 -23.38334,6.86377 -23.38334,17.68292 0,21.05664 32.45747,13.26219 32.45747,27.10606 0,4.42073 -3.72272,7.3291 -10.81916,7.3291 -7.21277,0 -13.84386,-3.25738 -21.87098,-8.14345 v 12.44785 c 9.3068,4.07172 17.68292,5.23507 23.15067,5.23507 z"
       id="path6802"
       style="font-size:116.335px;line-height:1.25;font-family:Milliard;-inkscape-font-specification:Milliard;stroke-width:0.999997" /></g></svg>
